<svg xmlns="http://www.w3.org/2000/svg" width="823" height="345" viewBox="0 0 823 345">
<g>
<path d="M 339.10 201.00 L 338.50 212.50 L 332.00 212.74 C324.29,213.03 317.34,210.16 312.50,204.69 C310.18,202.07 307.94,200.89 302.64,199.51 C293.55,197.14 288.38,193.10 284.09,185.02 C281.40,179.95 280.58,177.09 280.23,171.54 C279.69,163.11 280.85,158.34 285.22,151.00 C287.96,146.41 289.58,144.95 295.00,142.17 C301.25,138.97 301.87,138.85 311.03,139.20 C319.19,139.50 321.22,139.94 325.14,142.24 C331.31,145.85 335.37,150.69 337.90,157.46 C343.32,171.95 337.92,189.18 325.83,195.98 L 321.73 198.28 L 324.11 199.61 C325.43,200.33 329.33,200.95 332.80,200.96 ZM 205.30 251.61 C198.90,252.85 187.58,253.20 182.00,252.34 C172.14,250.82 160.96,246.28 151.76,240.07 C145.15,235.61 134.94,224.30 131.36,217.48 C126.30,207.83 126.30,207.52 131.23,206.07 C133.58,205.37 139.30,202.84 143.95,200.44 C148.60,198.04 152.46,196.17 152.52,196.29 C152.59,196.40 153.93,199.19 155.51,202.49 C161.12,214.18 173.40,223.04 186.06,224.51 L 192.01 225.20 L 202.95 236.85 C209.39,243.71 213.53,248.87 213.00,249.40 C212.51,249.89 209.05,250.89 205.30,251.61 ZM 130.20 181.78 C126.73,184.65 123.77,187.00 123.61,187.00 C122.60,187.00 122.51,185.10 123.13,177.30 C125.28,150.55 145.35,126.42 171.93,118.60 L 172.14 118.54 C176.89,117.14 179.53,116.36 181.55,117.15 C184.09,118.15 185.67,121.63 189.27,129.47 C195.54,143.11 196.04,145.09 193.06,144.31 C189.82,143.46 177.27,146.04 172.24,148.58 C169.64,149.90 166.77,150.75 165.88,150.46 C164.78,150.11 159.79,154.22 150.38,163.25 C142.74,170.57 133.66,178.91 130.20,181.78 ZM 421.20 197.90 C416.88,200.10 410.43,201.30 408.00,200.34 C402.37,198.14 400.04,196.49 398.48,193.59 C395.99,188.96 396.94,182.59 400.68,178.88 C403.82,175.76 412.76,173.00 419.71,173.00 C423.59,173.00 424.00,172.77 424.00,170.57 C424.00,165.21 418.13,162.84 411.10,165.36 C404.52,167.72 403.19,167.47 401.32,163.55 C399.21,159.12 400.21,157.84 407.57,155.52 C414.95,153.20 425.82,153.73 429.66,156.59 C436.24,161.51 436.50,162.45 436.50,181.82 L 436.50 199.50 L 432.34 199.80 C429.03,200.04 427.89,199.67 426.70,197.98 L 425.21 195.85 ZM 373.75 197.02 C371.41,198.76 369.03,199.46 365.02,199.62 C357.66,199.90 355.63,199.36 352.58,196.31 C348.72,192.45 347.92,187.67 348.22,170.30 L 348.50 154.50 L 361.00 153.90 L 361.00 168.39 C361.00,183.80 361.66,187.21 365.00,189.00 C367.33,190.25 373.35,188.81 374.74,186.68 C375.16,186.03 375.73,178.52 376.00,170.00 L 376.50 154.50 L 389.50 154.50 L 389.50 199.50 L 384.61 199.50 C380.75,199.50 379.48,199.08 378.61,197.50 C378.00,196.40 377.38,195.31 377.24,195.07 C377.09,194.84 375.53,195.71 373.75,197.02 ZM 491.12 209.25 L 488.08 216.00 L 482.60 216.00 C479.59,216.00 476.86,215.59 476.55,215.08 C476.24,214.57 477.56,210.68 479.50,206.42 L 483.03 198.69 L 480.02 190.89 C478.36,186.59 476.27,181.38 475.36,179.29 C474.46,177.21 473.36,174.60 472.92,173.50 C472.48,172.40 470.74,168.13 469.06,164.02 C467.38,159.90 466.00,155.95 466.00,155.22 C466.00,154.24 467.68,153.98 472.68,154.20 L 479.35 154.50 L 483.64 166.00 C485.99,172.32 487.94,178.51 487.96,179.75 C488.02,183.08 489.77,182.48 490.85,178.75 C492.14,174.32 498.70,156.29 499.49,155.02 C500.31,153.69 513.00,153.68 513.00,155.01 C513.00,155.57 512.59,156.81 512.08,157.76 C510.39,160.97 508.09,166.59 501.10,184.60 C497.28,194.44 492.78,205.54 491.12,209.25 ZM 305.25 187.67 C309.42,189.18 309.77,189.19 314.25,187.95 C321.68,185.88 326.00,179.01 326.00,169.24 C326.00,162.44 323.07,155.76 318.67,152.56 C314.76,149.71 305.21,149.73 301.28,152.59 C292.68,158.86 291.41,176.50 299.03,183.69 C300.66,185.23 303.46,187.02 305.25,187.67 ZM 460.03 137.00 L 459.50 199.50 L 453.96 199.79 C450.91,199.96 448.10,199.77 447.71,199.38 C447.32,198.99 447.00,184.79 447.00,167.83 L 447.00 137.00 ZM 411.20 189.80 C414.83,193.43 424.00,189.23 424.00,183.93 C424.00,181.10 423.84,181.00 419.22,181.00 C416.52,181.00 413.48,181.68 412.22,182.56 C409.80,184.25 409.29,187.89 411.20,189.80 Z" fill="rgb(25,49,87)"/>
<path d="M 238.00 260.33 C238.00,261.25 237.66,262.00 237.24,262.00 C236.47,262.00 212.10,237.55 199.71,224.35 C193.61,217.85 193.00,216.81 193.00,212.97 C193.00,207.98 196.03,202.49 199.26,201.63 C200.49,201.30 203.98,201.03 207.00,201.03 C211.99,201.03 212.92,201.40 217.00,205.00 C219.48,207.18 221.98,208.98 222.57,208.98 C223.87,209.00 227.41,202.01 228.91,196.50 C230.44,190.83 230.26,179.17 228.54,173.48 L 227.09 168.64 L 233.29 161.45 C238.85,155.02 242.24,150.74 244.15,147.73 C246.34,144.29 252.77,155.76 256.15,169.12 C257.86,175.90 258.15,179.41 257.76,188.93 C257.15,204.22 253.59,214.83 245.56,225.36 C243.60,227.92 242.01,230.58 242.03,231.26 C242.04,231.94 245.25,235.88 249.16,240.00 C258.46,249.82 259.60,251.57 258.00,253.51 C257.31,254.33 256.28,255.00 255.71,255.00 C255.13,255.00 253.80,255.78 252.75,256.72 C250.95,258.36 250.69,258.36 247.84,256.72 C246.19,255.78 244.04,255.00 243.07,255.00 C240.91,255.00 238.00,258.06 238.00,260.33 ZM 117.16 203.57 C109.47,205.07 107.73,205.13 102.00,204.12 L 98.50 203.50 L 103.88 202.24 C118.45,198.82 133.59,188.82 153.34,169.55 C159.85,163.20 165.52,158.00 165.94,158.00 C167.10,158.00 171.96,161.70 181.61,169.94 L 190.34 177.38 L 199.01 168.27 C215.47,150.98 224.16,140.57 236.46,123.43 C239.51,119.18 242.00,115.11 242.00,114.40 C242.00,113.68 240.43,112.35 238.50,111.43 C236.57,110.52 235.00,109.43 235.00,109.01 C235.00,108.27 262.09,94.00 263.50,94.00 C264.22,94.00 263.11,127.13 262.37,127.93 C262.15,128.17 260.44,126.88 258.57,125.07 C256.70,123.26 254.73,122.05 254.18,122.39 C253.64,122.73 251.95,125.14 250.43,127.75 C242.14,142.00 224.68,163.71 205.26,183.92 L 191.40 198.34 L 183.95 192.26 C179.85,188.92 174.72,184.34 172.55,182.09 C167.86,177.24 165.36,176.97 161.57,180.93 C152.89,189.99 131.91,200.68 117.16,203.57 ZM 557.43 196.99 C552.93,199.31 551.34,199.53 536.28,199.84 L 520.00 200.17 L 520.00 139.00 L 535.80 139.00 C550.82,139.00 551.87,139.13 556.83,141.60 C563.05,144.70 565.00,147.92 565.00,155.11 C565.00,159.88 564.67,160.63 560.98,164.13 L 556.97 167.95 L 560.83 170.39 C565.65,173.43 567.40,177.48 566.77,184.09 C566.16,190.37 563.71,193.76 557.43,196.99 ZM 599.88 197.42 C592.17,201.70 585.48,201.46 580.28,196.73 C576.27,193.08 575.60,188.14 575.89,164.25 L 576.00 155.00 L 588.00 155.00 L 588.00 169.05 C588.00,179.42 588.38,183.84 589.46,185.93 C592.03,190.89 597.24,191.44 601.31,187.20 C603.98,184.41 604.00,184.28 604.00,169.70 L 604.00 155.00 L 609.95 155.00 C615.89,155.00 615.91,155.01 616.50,158.25 C616.82,160.04 616.95,170.05 616.79,180.50 L 616.50 199.50 L 611.75 199.80 C607.44,200.08 606.90,199.87 606.02,197.55 C605.49,196.15 604.87,195.00 604.65,195.00 C604.43,195.00 602.28,196.09 599.88,197.42 ZM 650.12 199.46 C643.16,201.91 635.69,200.88 628.17,196.44 C624.37,194.20 624.24,192.99 627.41,189.31 L 629.82 186.51 L 634.43 188.76 C642.06,192.46 648.00,191.46 648.00,186.47 C648.00,184.72 646.51,183.78 639.69,181.19 C635.12,179.45 630.35,176.94 629.11,175.61 C623.69,169.84 626.00,159.27 633.42,155.90 C640.66,152.61 654.75,153.86 658.62,158.13 C660.15,159.82 660.14,160.13 658.57,162.53 C656.29,166.01 654.74,166.43 651.14,164.57 C647.43,162.66 643.00,162.55 640.58,164.32 C637.81,166.35 639.05,169.06 643.50,170.71 C656.13,175.39 657.69,176.20 659.31,178.94 C660.28,180.59 661.00,183.90 661.00,186.71 C661.00,190.92 660.55,192.05 657.75,194.76 C655.96,196.50 652.53,198.61 650.12,199.46 ZM 694.42 198.82 C691.93,200.10 683.30,201.06 680.50,200.37 C675.50,199.15 668.09,195.69 667.57,194.32 C666.87,192.49 670.59,187.00 672.54,187.00 C673.31,187.00 675.81,187.98 678.10,189.17 C684.70,192.61 691.00,191.55 691.00,187.00 C691.00,184.54 689.34,183.43 682.82,181.55 C674.93,179.26 670.76,176.20 669.24,171.61 C667.32,165.77 669.06,160.70 674.30,156.88 C678.35,153.92 678.80,153.82 687.06,154.20 C693.95,154.52 696.25,155.04 698.81,156.87 C702.48,159.48 702.74,160.87 700.14,164.07 L 698.29 166.36 L 692.49 164.54 C685.88,162.46 681.69,163.22 681.20,166.59 C680.88,168.85 683.10,170.19 693.65,174.10 C700.93,176.81 703.00,179.59 703.00,186.71 C703.00,190.94 702.56,192.03 699.75,194.68 C697.96,196.38 695.57,198.24 694.42,198.82 ZM 183.66 145.10 C187.71,144.29 191.49,143.89 193.06,144.31 C196.04,145.09 195.54,143.11 189.27,129.47 C185.67,121.63 184.09,118.15 181.55,117.15 C181.43,117.11 181.32,117.07 181.20,117.04 C190.82,116.19 203.47,116.67 209.50,118.47 C214.39,119.92 224.40,124.26 225.84,125.54 C226.29,125.94 222.82,130.88 215.54,140.21 C210.55,146.61 209.30,147.69 207.79,146.89 C206.80,146.36 202.26,145.47 197.69,144.91 C193.08,144.35 188.18,144.45 183.66,145.10 ZM 533.00 174.00 L 533.00 189.00 L 540.75 188.97 C545.52,188.95 549.16,188.44 550.21,187.64 C552.53,185.87 554.13,181.36 553.42,178.56 C552.60,175.27 548.99,174.00 540.45,174.00 ZM 533.67 163.33 C534.91,164.58 545.08,164.01 547.92,162.54 C550.48,161.21 551.95,158.59 551.99,155.25 C551.99,154.56 551.10,153.10 550.00,152.00 C548.36,150.36 546.67,150.00 540.50,150.00 L 533.00 150.00 L 533.00 156.33 C533.00,159.82 533.30,162.97 533.67,163.33 ZM 257.25 264.57 C254.09,268.11 251.27,270.99 251.00,270.97 C248.39,270.81 243.03,263.64 244.46,262.21 C244.79,261.88 246.35,262.37 247.94,263.30 C249.52,264.24 251.05,265.00 251.34,265.00 C251.64,265.00 253.33,262.98 255.11,260.50 C257.35,257.38 259.05,256.00 260.67,256.00 C261.95,256.00 263.00,256.48 263.00,257.07 C263.00,257.66 260.41,261.03 257.25,264.57 ZM 143.92 134.91 C132.41,145.90 124.73,160.65 123.22,176.35 C124.73,160.59 132.38,145.88 143.92,134.91 ZM 164.32 151.04 C165.09,150.56 165.60,150.37 165.88,150.46 C166.63,150.70 168.74,150.15 170.93,149.20 C169.08,150.21 166.93,150.79 166.02,150.50 C165.68,150.40 165.13,150.56 164.32,151.04 Z" fill="rgb(135,193,76)"/>
<path d="M 125.24 192.76 C117.71,197.56 110.73,200.63 103.88,202.24 L 98.50 203.50 L 102.00 204.12 C104.14,204.50 105.73,204.73 107.28,204.78 C101.28,205.18 96.00,204.96 96.00,204.02 C96.00,202.96 98.13,202.38 104.61,201.68 C109.03,201.19 117.47,197.44 125.24,192.76 ZM 486.29 173.57 C487.73,177.39 488.82,179.97 489.00,179.98 C489.79,179.99 491.88,175.25 495.51,165.27 C496.69,162.01 497.85,158.94 498.62,157.01 C496.60,162.09 491.92,175.08 490.85,178.75 C489.77,182.48 488.02,183.08 487.96,179.75 C487.95,179.03 487.29,176.67 486.29,173.57 ZM 234.23 126.51 C227.83,135.32 222.27,142.42 215.77,149.94 C220.75,144.15 225.17,138.56 230.49,131.50 C231.87,129.65 233.12,128.00 234.23,126.51 ZM 469.61 154.13 C470.46,154.12 471.49,154.15 472.71,154.20 L 479.41 154.50 L 480.78 158.34 L 479.35 154.50 L 472.68 154.20 C471.47,154.15 470.46,154.13 469.61,154.13 ZM 143.96 178.31 C147.16,175.43 150.48,172.34 153.34,169.55 C150.09,172.72 146.97,175.63 143.96,178.31 Z" fill="rgb(165,191,160)"/>
<path d="M 0.00 172.50 L 0.00 0.00 L 411.50 0.00 L 823.00 0.00 L 823.00 172.50 L 823.00 345.00 L 411.50 345.00 L 0.00 345.00 L 0.00 172.50 ZM 257.25 264.57 C260.41,261.03 263.00,257.66 263.00,257.07 C263.00,256.48 261.95,256.00 260.67,256.00 C259.05,256.00 257.35,257.38 255.11,260.50 C253.33,262.98 251.64,265.00 251.34,265.00 C251.05,265.00 249.52,264.24 247.94,263.30 C246.35,262.37 244.79,261.88 244.46,262.21 C243.03,263.64 248.39,270.81 251.00,270.97 C251.27,270.99 254.09,268.11 257.25,264.57 ZM 238.00 260.33 C238.00,258.06 240.91,255.00 243.07,255.00 C244.04,255.00 246.19,255.78 247.84,256.72 C250.69,258.36 250.95,258.36 252.75,256.72 C253.80,255.78 255.13,255.00 255.71,255.00 C256.28,255.00 257.31,254.33 258.00,253.51 C259.60,251.57 258.46,249.82 249.16,240.00 C245.25,235.88 242.04,231.94 242.03,231.26 C242.01,230.58 243.60,227.92 245.56,225.36 C253.59,214.83 257.15,204.22 257.76,188.93 C258.15,179.41 257.86,175.90 256.15,169.12 C252.77,155.76 246.34,144.29 244.15,147.73 C242.24,150.74 238.85,155.02 233.29,161.45 L 227.09 168.64 L 228.54 173.48 C230.26,179.17 230.44,190.83 228.91,196.50 C227.41,202.01 223.87,209.00 222.57,208.98 C221.98,208.98 219.48,207.18 217.00,205.00 C212.92,201.40 211.99,201.03 207.00,201.03 C203.98,201.03 200.49,201.30 199.26,201.63 C196.03,202.49 193.00,207.98 193.00,212.97 C193.00,216.81 193.61,217.85 199.71,224.35 C212.10,237.55 236.47,262.00 237.24,262.00 C237.66,262.00 238.00,261.25 238.00,260.33 ZM 205.30 251.61 C209.05,250.89 212.51,249.89 213.00,249.40 C213.53,248.87 209.39,243.71 202.95,236.85 L 192.01 225.20 L 186.06 224.51 C173.40,223.04 161.12,214.18 155.51,202.49 C153.93,199.19 152.59,196.40 152.52,196.29 C152.46,196.17 148.60,198.04 143.95,200.44 C139.30,202.84 133.58,205.37 131.23,206.07 C126.30,207.52 126.30,207.83 131.36,217.48 C134.94,224.30 145.15,235.61 151.76,240.07 C160.96,246.28 172.14,250.82 182.00,252.34 C187.58,253.20 198.90,252.85 205.30,251.61 ZM 491.12 209.25 C492.78,205.54 497.28,194.44 501.10,184.60 C508.09,166.59 510.39,160.97 512.08,157.76 C512.59,156.81 513.00,155.57 513.00,155.01 C513.00,153.68 500.31,153.69 499.49,155.02 C499.14,155.59 497.35,160.20 495.51,165.27 C491.88,175.25 489.79,179.99 489.00,179.98 C488.73,179.97 486.46,174.24 483.96,167.23 L 479.41 154.50 L 472.71 154.20 C467.68,153.98 466.00,154.24 466.00,155.22 C466.00,155.95 467.38,159.90 469.06,164.02 C470.74,168.13 472.48,172.40 472.92,173.50 C473.36,174.60 474.46,177.21 475.36,179.29 C476.27,181.38 478.36,186.59 480.02,190.89 L 483.03 198.69 L 479.50 206.42 C477.56,210.68 476.24,214.57 476.55,215.08 C476.86,215.59 479.59,216.00 482.60,216.00 L 488.08 216.00 L 491.12 209.25 ZM 338.80 206.75 L 339.10 201.00 L 332.80 200.96 C329.33,200.95 325.43,200.33 324.11,199.61 L 321.73 198.28 L 325.83 195.98 C337.92,189.18 343.32,171.95 337.90,157.46 C335.37,150.69 331.31,145.85 325.14,142.24 C321.22,139.94 319.19,139.50 311.03,139.20 C301.87,138.85 301.25,138.97 295.00,142.17 C289.58,144.95 287.96,146.41 285.22,151.00 C280.85,158.34 279.69,163.11 280.23,171.54 C280.58,177.09 281.40,179.95 284.09,185.02 C288.38,193.10 293.55,197.14 302.64,199.51 C307.94,200.89 310.18,202.07 312.50,204.69 C317.34,210.16 324.29,213.03 332.00,212.74 L 338.50 212.50 L 338.80 206.75 ZM 117.16 203.57 C131.91,200.68 152.89,189.99 161.57,180.93 C165.36,176.97 167.86,177.24 172.55,182.09 C174.72,184.34 179.85,188.92 183.95,192.26 L 191.40 198.34 L 205.26 183.92 C224.68,163.71 242.14,142.00 250.43,127.75 C251.95,125.14 253.64,122.73 254.18,122.39 C254.73,122.05 256.70,123.26 258.57,125.07 C260.44,126.88 262.15,128.17 262.37,127.93 C263.03,127.21 264.26,94.00 263.62,94.00 C263.29,94.00 258.41,96.23 252.76,98.95 C247.12,101.68 240.16,104.94 237.29,106.20 C234.43,107.47 232.06,108.82 232.04,109.21 C232.02,109.60 233.91,110.46 236.25,111.13 C244.17,113.38 244.21,113.26 230.49,131.50 C220.17,145.22 213.19,153.37 199.01,168.27 L 190.34 177.38 L 181.61 169.94 C171.96,161.70 167.10,158.00 165.94,158.00 C165.52,158.00 159.85,163.20 153.34,169.55 C146.83,175.90 137.90,183.84 133.50,187.20 C124.41,194.14 110.69,201.01 104.61,201.68 C98.13,202.38 96.00,202.96 96.00,204.02 C96.00,205.48 108.76,205.21 117.16,203.57 ZM 421.20 197.90 L 425.21 195.85 L 426.70 197.98 C427.89,199.67 429.03,200.04 432.34,199.80 L 436.50 199.50 L 436.50 181.82 C436.50,162.45 436.24,161.51 429.66,156.59 C425.82,153.73 414.95,153.20 407.57,155.52 C400.21,157.84 399.21,159.12 401.32,163.55 C403.19,167.47 404.52,167.72 411.10,165.36 C418.13,162.84 424.00,165.21 424.00,170.57 C424.00,172.77 423.59,173.00 419.71,173.00 C412.76,173.00 403.82,175.76 400.68,178.88 C396.94,182.59 395.99,188.96 398.48,193.59 C400.04,196.49 402.37,198.14 408.00,200.34 C410.43,201.30 416.88,200.10 421.20,197.90 ZM 599.88 197.42 C602.28,196.09 604.43,195.00 604.65,195.00 C604.87,195.00 605.49,196.15 606.02,197.55 C606.90,199.87 607.44,200.08 611.75,199.80 L 616.50 199.50 L 616.79 180.50 C616.95,170.05 616.82,160.04 616.50,158.25 C615.91,155.01 615.89,155.00 609.95,155.00 L 604.00 155.00 L 604.00 169.70 C604.00,184.28 603.98,184.41 601.31,187.20 C597.24,191.44 592.03,190.89 589.46,185.93 C588.38,183.84 588.00,179.42 588.00,169.05 L 588.00 155.00 L 582.00 155.00 L 576.00 155.00 L 575.89 164.25 C575.60,188.14 576.27,193.08 580.28,196.73 C585.48,201.46 592.17,201.70 599.88,197.42 ZM 650.12 199.46 C652.53,198.61 655.96,196.50 657.75,194.76 C660.55,192.05 661.00,190.92 661.00,186.71 C661.00,183.90 660.28,180.59 659.31,178.94 C657.69,176.20 656.13,175.39 643.50,170.71 C639.05,169.06 637.81,166.35 640.58,164.32 C643.00,162.55 647.43,162.66 651.14,164.57 C654.74,166.43 656.29,166.01 658.57,162.53 C660.14,160.13 660.15,159.82 658.62,158.13 C654.75,153.86 640.66,152.61 633.42,155.90 C626.00,159.27 623.69,169.84 629.11,175.61 C630.35,176.94 635.12,179.45 639.69,181.19 C646.51,183.78 648.00,184.72 648.00,186.47 C648.00,191.46 642.06,192.46 634.43,188.76 L 629.82 186.51 L 627.41 189.31 C624.24,192.99 624.37,194.20 628.17,196.44 C635.69,200.88 643.16,201.91 650.12,199.46 ZM 694.42 198.82 C695.57,198.24 697.96,196.38 699.75,194.68 C702.56,192.03 703.00,190.94 703.00,186.71 C703.00,179.59 700.93,176.81 693.65,174.10 C683.10,170.19 680.88,168.85 681.20,166.59 C681.69,163.22 685.88,162.46 692.49,164.54 L 698.29 166.36 L 700.14 164.07 C702.74,160.87 702.48,159.48 698.81,156.87 C696.25,155.04 693.95,154.52 687.06,154.20 C678.80,153.82 678.35,153.92 674.30,156.88 C669.06,160.70 667.32,165.77 669.24,171.61 C670.76,176.20 674.93,179.26 682.82,181.55 C689.34,183.43 691.00,184.54 691.00,187.00 C691.00,191.55 684.70,192.61 678.10,189.17 C675.81,187.98 673.31,187.00 672.54,187.00 C670.59,187.00 666.87,192.49 667.57,194.32 C668.09,195.69 675.50,199.15 680.50,200.37 C683.30,201.06 691.93,200.10 694.42,198.82 ZM 373.75 197.02 C375.53,195.71 377.09,194.84 377.24,195.07 C377.38,195.31 378.00,196.40 378.61,197.50 C379.48,199.08 380.75,199.50 384.61,199.50 L 389.50 199.50 L 389.50 177.00 L 389.50 154.50 L 383.00 154.50 L 376.50 154.50 L 376.00 170.00 C375.73,178.52 375.16,186.03 374.74,186.68 C373.35,188.81 367.33,190.25 365.00,189.00 C361.66,187.21 361.00,183.80 361.00,168.39 L 361.00 153.90 L 354.75 154.20 L 348.50 154.50 L 348.22 170.30 C347.92,187.67 348.72,192.45 352.58,196.31 C355.63,199.36 357.66,199.90 365.02,199.62 C369.03,199.46 371.41,198.76 373.75,197.02 ZM 459.76 168.25 L 460.03 137.00 L 453.51 137.00 L 447.00 137.00 L 447.00 167.83 C447.00,184.79 447.32,198.99 447.71,199.38 C448.10,199.77 450.91,199.96 453.96,199.79 L 459.50 199.50 L 459.76 168.25 ZM 557.43 196.99 C563.71,193.76 566.16,190.37 566.77,184.09 C567.40,177.48 565.65,173.43 560.83,170.39 L 556.97 167.95 L 560.98 164.13 C564.67,160.63 565.00,159.88 565.00,155.11 C565.00,147.92 563.05,144.70 556.83,141.60 C551.87,139.13 550.82,139.00 535.80,139.00 L 520.00 139.00 L 520.00 169.59 L 520.00 200.17 L 536.28 199.84 C551.34,199.53 552.93,199.31 557.43,196.99 ZM 130.20 181.78 C133.66,178.91 142.74,170.57 150.38,163.25 C160.46,153.58 164.73,150.10 166.02,150.50 C166.98,150.81 169.35,150.14 171.27,149.00 C177.35,145.42 188.15,143.74 197.69,144.91 C202.26,145.47 206.80,146.36 207.79,146.89 C209.30,147.69 210.55,146.61 215.54,140.21 C222.82,130.88 226.29,125.94 225.84,125.54 C224.40,124.26 214.39,119.92 209.50,118.47 C201.31,116.02 180.91,116.02 172.47,118.46 C145.47,126.26 125.30,150.32 123.13,177.30 C122.51,185.10 122.60,187.00 123.61,187.00 C123.77,187.00 126.73,184.65 130.20,181.78 ZM 305.25 187.67 C303.46,187.02 300.66,185.23 299.03,183.69 C291.41,176.50 292.68,158.86 301.28,152.59 C305.21,149.73 314.76,149.71 318.67,152.56 C323.07,155.76 326.00,162.44 326.00,169.24 C326.00,179.01 321.68,185.88 314.25,187.95 C309.77,189.19 309.42,189.18 305.25,187.67 ZM 411.20 189.80 C409.29,187.89 409.80,184.25 412.22,182.56 C413.48,181.68 416.52,181.00 419.22,181.00 C423.84,181.00 424.00,181.10 424.00,183.93 C424.00,189.23 414.83,193.43 411.20,189.80 ZM 533.00 181.50 L 533.00 174.00 L 540.45 174.00 C548.99,174.00 552.60,175.27 553.42,178.56 C554.13,181.36 552.53,185.87 550.21,187.64 C549.16,188.44 545.52,188.95 540.75,188.97 L 533.00 189.00 L 533.00 181.50 ZM 533.67 163.33 C533.30,162.97 533.00,159.82 533.00,156.33 L 533.00 150.00 L 540.50 150.00 C546.67,150.00 548.36,150.36 550.00,152.00 C551.10,153.10 551.99,154.56 551.99,155.25 C551.95,158.59 550.48,161.21 547.92,162.54 C545.08,164.01 534.91,164.58 533.67,163.33 Z" fill="rgb(250,251,250)"/>
</g>
</svg>